<?xml version="1.0" encoding="UTF-8"?>
<svg id="Livello_2" data-name="Livello 2" xmlns="http://www.w3.org/2000/svg" viewBox="0 0 194.6 263.58">
  <defs>
    <style>
      .cls-1 {
        fill: #939f5f;
      }
    </style>
  </defs>
  <g id="Livello_1-2" data-name="Livello 1">
    <g>
      <path class="cls-1" d="M125.67,263.58c-1.24-6.09,2.25-13.65,2.06-19.24-.06-1.76-1.2-3.22-1.33-4.8-.53-6.59.31-12.32,2.27-18.54-4.69-9.37-29.76-23.27-31.35-32.79-.84-5.05.79-16.57,1.32-22.26.98-10.37,2.64-20.78,4.07-31.1.04-2.46-8.06-3.76-8.15-4.77l12.18-50.97c-4.93,2.21-13.11,14.65-18.94,13.22l-23.64-18.28c-2.29-2.53.13-2.85-.06-3.96-.1-.59-1.87-1.99-2.14-2.95-6.32-2-14.31-2.7-20.41-4.93-1.66-.61-2.1-1.97-3.73-2.01-1.04,3.69,2.13,2.53,3.43,4.34.97,1.36.46,3.27,1.26,4.65,2.19,3.8,13.31,9.41,17.15,11.34,5.48,2.75,11.05,5.26,16.66,7.73,1.5,1.31,1.63,5.35,1.95,7.51,2.41,16.02,4.41,34.43,5.49,50.59.7,10.38,1.24,21.04-.05,31.36-2.44.63-11.09,1.67-12.01-1.05.02-15.73-.32-31.47-1.52-47.13l-1.27-3.11c-1.02,19.18.71,38.39-.17,57.65-.62,3.2-10.54,6.6-13.71,7.68-1.05-.11-1.79-2.09-2.2-2.98-2.87-6.2-4.78-16.73-6.71-23.69-2.24-8.07-2.91-15.54-2.95-24.15-.05-13.67,6.43-26.16,10-39.37,1.81-6.69,3.72-13.47,4.24-20.42l-14.53,49.33-1.08-1.59-13.44-47.74c.3,6.26,1.9,12.47,3.42,18.53,2.5,9.93,8.05,22.16,9.78,31.44.48,2.6.03,25.26-.52,27.93-.35,1.68-2.08,4.52-2.73,6.73-1.08,3.71-6.16,23.41-7.57,24.86-2.3,2.37-14.64-4.1-15.21-7.13l.65-57.08-1.18,1.85-2.33,47.68c-.58,3.03-11.7,2.09-12.04.68-1.37-5.6-.16-10.71.04-16.06.52-13.98,1.73-27.93,3.44-41.84,1.22-9.9,3.05-19.76,4.1-29.69.5-1.34,14.16-6.96,16.79-8.25,2.51-1.23,6.02-2.46,8.43-4.37,1.31-1.04,6.19-5.86,6.41-7.13.82-4.6-7.81-5.9-3.42-10.83,2.31-2.6,4.81.09,7.1.41,4.37.62,12.69-1.2,15.92-.42.65.16,10.47,4.33,11.44,4.83,4.49,2.3,10.38,9.74,14.95,12.75.56.37,1.09.8,1.77.96,10.94-7.01,16.35-20.39,22.18-31.66l19.14-4.85.79-2.58c-4.13.05-8.81.58-8.61-4.89.08-2.14,1.9-5.62,1.86-6.99-.05-1.5-3-1.85-2.64-3.92,1.51-1.61,3.07-1.6,4.56-3.56,2.53-3.32,1.49-8.04,5.44-10.84.59-1.59-1.5-2.21-1.85-3.38-1.38-4.56,10.43-4.71,13.43-3.94s10.74,6.56,12.45,9.17c3.59,5.5.82,14.53-2.71,19.52-1.76,2.49-7.95,7.31-5.56,11.4,1.48,2.53,19.68,7.95,23.3,9.8,6.02,13.23,18.35,21.66,25.21,34.26v6.08c-5.16,11.17-13.88,20.09-21.64,29.45-.91.45-3.66-1.66-6.1-1.44-2.66.24-7.12,2.7-9.42,4.09v16.22l-1.07.94-2.98-.61c-6.45,24.09-8.14,49.31-8.02,74.24l11.1,1.4.27,6.77-3.27,1.09c.76,3.26,1.07,6.71,2.13,9.9,1.76,5.26,5.3,6.75,2.41,12.92-.59,1.26-4.48,7.17-5.38,8.13-.72.76-.77,1.39-2.16,1.03-3.55-.91-.47-6.13-.46-8.37.02-3.73-3.62-12.25-8.1-12.5-.76,2.92-1.49,5.89-2.37,8.78-.33,1.08-1.57,1.85-1.68,3.06-.45,4.67,3.58,12.3-.01,17.89h-12.16ZM47.28,77.07c.94-.82-4.68-4.51-5.16-5.35l-4.96,4.34c-.03,1.72,8.57.8,10.12,1.01ZM159.46,112.2l4.37.66.71-.65c-.89-3.28,2.89-3.63,4.71-5.42,4.98-4.88,9.1-11.17,12.51-17.24l-14.55-17.21-7.75,39.86ZM129.72,193.97l-4.72-29.72-7.35,21.83c.29,1.14,11.52,8.47,12.07,7.89Z"/>
      <path class="cls-1" d="M49.98,185.86h-15.54c2.18-8.47,3.12-18.19,7.77-25.66,2.82-.06,6.95,22.27,7.77,25.66Z"/>
    </g>
  </g>
</svg>