<?xml version="1.0" encoding="UTF-8"?>
<svg id="Livello_2" data-name="Livello 2" xmlns="http://www.w3.org/2000/svg" viewBox="0 0 252.1 270.3">
  <defs>
    <style>
      .cls-1 {
        fill: #939f5f;
      }
    </style>
  </defs>
  <g id="Livello_1-2" data-name="Livello 1">
    <path class="cls-1" d="M130.48,0c1.21,6.44,7.1,5.28,10.97,8.77,4.46,4.03,2.79,9.38,3.27,14.49.15,1.61,1.37,3.16,1.35,4.81-.01.8-4.1,7.77-4.78,8.12l-9.45-2.4c-2.18,5.67-1.35,8.28,5.33,7.5-.45,6.18,4.37,8.49,6.73,12.53,3.46,5.93,4.5,11.4,9.54,16.81,1.02,1.09,5.86,5.69,6.79,6.09,4.5,1.93,20.98-14.44,21.98-19.26.25-1.19-.63-2.32-.08-3.39.66-1.29,4.21-3.09,5.79-2.72l-2.03-5.4c.93-.98,5.21,5.38,6.39,6.1,1.86,1.12,3.98.6,5.39,2.73,3.15,4.77-4.76,11.34-2.88,16.74,7.15,3.02,15.36,7.02,20.85,12.58,3.94,3.99-1.38,8.89-3.39,12.91l-.89.21c-5.67-4.3-6.56,5.79-9.25,9.03-2.31,2.79-7.39,4.37-6.01,9.55,2.91,1.89,6.35,2.08,9.34,4.19,12.35,8.71,20.57,33.77,28.82,46.87,5.09,8.08,11.53,13.67,17.84,20.67-3.84,3.17-7.68,2.22-12.15,1.68,2.3,10.11-6.64,13.19-12.16,5.41l-1.31,6.31c-.31.51-1.63,1.06-2.25,1.26-1.66.54-10.6,3.01-11.82,3.08-1.71.09-3.18-.75-5.18-.49-2.52.32-5.63,2.56-8.87,2.7-4.58.2-4.3-1.97-7.26-3.54-1.59-.84-10.65-5.15-11.7-5.26-3.82-.39-6.08,4.43-10,4.63l-3.11-7.04-8.11,1.04c.44-2.97,6.08-3.14,1.54-5.98-1.24-.32-3.71,1.21-4.3,2.22-1.09,1.86.07,4.26-1.97,5.12-.49-2.34-1.2-4.66-1.38-7.07-.46-6.14.33-14.62.71-20.97.91-15.23,1.93-44.67,16.11-53.49,3.28-2.04,8.77-2.55,10.88-3.99,4.25-2.9-1.13-8.12-1.3-10.82-.15-2.43,1.51-6.43.55-9.33l-.89-.94-3.03.47-1.94-10.93c4.2-5.86,10.46-11.14,18.15-10.95.32-4.02,5.33-10.03,4.71-13.54-.71-3.99-5.74.5-7.46,2-5.48,4.75-21.39,27.12-26.72,28.06-1.35.24-2.22.04-3.39-.65-1.64-.96-14.32-11.97-15.55-13.51-.63-.78-1.06-2.86-1.3-2.74-2.52,4.7-5.86,7.55-6.41,13.18-.92,9.21.69,6.59,6.29,10.58,14.94,10.63,6.73,39.5,3.62,54.75-2.35,11.5-5.05,23.4-8.88,34.37-2.32,2.28-6.23.51-7.47,1.99-.9,1.07-2.97,9.42-3.86,11.68-2.77,6.99-6.88,13.7-7.27,21.44.51.49,12.01-2.38,13.85.68,10.68,12.18,22.63,23.48,33.12,35.81,1.37,1.61,3.72,3.99,3.7,6.09-2.74-2.27-5.34-4.83-7.77-7.42-9.22-9.83-18.38-22.4-28.02-31.45-4.96-4.65-8.83-2.86-14.86-1.32-4.59,16.33-5.52,33.74-12.18,49.65h-2.7c-5.77-11.76,2.36-20.77,4.53-31.62.75-3.73,1.71-11.71,1.61-15.35-.02-.81-.11-2.02-1.04-2.19L.06,232.46c-.12-1.69-.17-1.16,1.01-1.33,32.57-4.8,66.53-6.11,99.25-10.24,1.76-.22,6.84-.74,8.02-1.28,1.57-.71,2.27-16.14,2.74-19.05,1.18-7.33,4.6-14.56,5.2-21.83,1.61-19.79-9.72-62.26-3.03-77.36,1.43-3.22,4.93-4.91,3.55-8.96l-10.32-25.5c-1.5-.35-1.98,2.44-3.19,2.93-1.68.68-3.86.34-5.81.9-2.31.67-12.33,6.48-13.58,5.58-3.48-7.85-5.53-16.24-8.51-24.27-1.61-4.35-4.97-7.91-4.39-13.53l-1.34.33c3.09,4.77-5.99,10.12-4.66,14.09.27.79,7.86,4.1,10.31,8.64,1.4,2.59,5.27,15.08,5.69,18.01.57,4.01-4.31,9.04-7.75,10.87-.92.08-2.41-1.54-2.92-2.27-.76-1.06-1.31-4.25-2.35-3.71-.93.49-1.4,3.19-2.35,4.41-1.74,2.23-5.92,3.63-6.78,7.07,3.84-.47,6.41,1.11,9.4,3.11,21.74,14.54,23.87,55.85,35.77,78.44.7,1.34,2.74,3.19,2.8,3.4,1.3,4.89-9.44,3.29-12.48,2.9-2.71-.35-8.19-.81-9.18-3.31l-1.29-.06c.03,1.89-2.67,2.78-2.7,4.37-.05,2.14,3.02,3.35,1.39,6.13-.63,1.07-6.19,6.18-7.44,6.77-3.41,1.64-11.18,3.03-14.51.91-2.07-1.32-1.82-5.45-4.82-6.02-5.48-1.03-15.94,6.61-22.61,4.05.83-2.63.96-4.81-.01-7.43l-10.12,2.03.68-2.69c-4.06-1.29-7.67.45-7.49-5.08.07-2.08,1.7-4.3-.28-5.72-4.32,2.72-7.47,4.98-12.22,1.34l.38-4.04-3.3-.76c2.06-18.76,2.93-37.85,8.37-56.01,1.87-6.23,5.08-13.66,8.82-18.88.71-1,1.9-2.17,2.99-2.75l-4.17,7.65c-2.44,5.85-4.77,11.87-3.94,18.37.12.93.51,2.12,1.35,1,.86-8.77,1.87-17.5,7.45-24.65,1.88-2.4,4.49-4.03,6.55-6,.3-.29.05-1.4.31-1.63,2.59-2.28,9.25.84,12.23,1.1,5.06-3.82,5.67-11.82,5.15-17.74-.15-1.77-1.37-3.75-1.25-5.44.11-1.56,3.24-5.77,2.67-6.45-1.02-1.23-1.46.89-1.69,1.32-2.66,4.91-1.82,8.91-9.79,8.14v-10.47c0-2.57,9.59-7.51,11.98-8.3,4.57-1.51,9.02-1.33,13.71-1.83l7.43-12.18c.38-1.76-2.25-.96-3.29-.92l-.78,4.64c-5.89-3.83,3.1-8.81,7.44-8.11.15-2.31-2.93-2.22-4.05-3.72-.38-1.52,1.53-1.16,2.38-1.03,8.98,1.32,7.05,13.64,8.62,19.76.8,3.1,6.77,14.53,9.75,15.31,5.48,1.43,4.16-3.58,5.08-5.15.2-.34,4.75-3.89,5.9-5.25,2.02-2.39,9.43-14.65,10.64-15.04,3.73-1.21,6.41.15,8.64-4.87,2.77-6.25-.28-9.24-.97-14.59-.53-4.15-1.39-13.36-.21-17,.39-1.21,1.56-2.42,2.19-3.56h10.14ZM132.5,45.95c-.69-.72-3.73,2.1-4.7,2.39-4.41,1.33-8.05-2.34-11.51-4.42.54,6.37,15.35,9.19,16.21,2.03ZM126.43,57.44v-4.05c-2.44,1.4-2.99,4.54.34,5.17,2.68-.69,3.41-2.54,3.03-5.17-2.04.71-.64,4.33-3.37,4.05ZM68.98,57.43c-2.51-3.08-7.06-3.65-10.81-3.37.15,1.04,2.34,1.51,3.23,1.83,2.31.82,5.1,1.62,7.58,1.54ZM55.22,56.86c-.48.15-.76.58-1.09.92,0,.91,11.6,7.56,12.08,1.91.21-2.46-9-3.43-10.98-2.83ZM142.63,68.93c-.55-2.51,1.64-8.42-2.02-8.78.51,2.53-.17,7.14,2.02,8.78ZM129.63,61.67c-2.7-2.63-6.47,1.55-3.59,3.94,2.27,1.89,5.69-1.9,3.59-3.94ZM127.09,68.25c-2.49-.15-2.56,2.97-1.41,4.45,2.03,2.6,7.9-.52,4.45-3.77l-2.1,3.34-1.99-1.32,1.04-2.7ZM199.4,75.68c-2.82-2.91-8.4-2.64-12.16-2.69-.16,1.03,1.26.8,2.03.99,3.22.82,6.8,1.52,10.13,1.7ZM197.37,78.38c-1.91-3.18-6.36-1.73-9.46-2.01,1.96,3.57,6.15,3.03,9.46,2.01ZM52.76,93.26c-3.84-.63-.67-3.99-5.07-4.73l1.69,2.36-4.04.34c1.35,2.73,2.99,2.79,5.74,2.71.76-.02,1.87.41,1.68-.68ZM35.87,93.26c-5.75-.82-10.77,5.21-13.79,9.51-3.67,5.22-5.23,10.38-5.12,16.83l4.41-12.81c1.57-4.02,4.21-7.33,7.41-10.16l.67,2.02,6.42-5.4ZM43.3,132.44c.1-6.37-2.66-13.74-2.7-19.93-.03-4.87,1.83-11.03,2.7-15.88-5.61,4.34-3.7,12.42-4.08,18.61l4.08,17.2ZM27.08,156.1c.44-15.64-1.24-32.91,2.9-48.12.96-3.52,2.67-6.59,3.86-9.99-1.91,1.46-4.07,4.56-5.06,6.76-4.83,10.67-4.05,34.97-2.96,46.88.08.9.37,4.14,1.26,4.47ZM187.23,107.44c.19-1.47-1.11-9.4-2.36-9.44l-.87,2.87,3.23,6.58ZM201.43,97.99c-1.81-.38-1.16.48-1.67,1.33-1.65,2.75-3.15,5.55-5.08,8.12,1.16,1.07,8.22-7.03,6.75-9.45ZM48.71,98.66c-5.52,2.11-4.78,9.98-4.72,14.86l4.72-14.86ZM50.73,104.06c-1.74-.26-1.41.27-1.34,1.68.75,14.71,14.16,30.45,20.62,43.58,2.95,5.99,4.45,13.07,8.43,18.26-5.23-22.88-22.55-40.83-27.71-63.52ZM131.84,123.66c5.1-4.49,9.18-11.21,8.77-18.24l-5.39,8.46c.09,2.67,2.2-1.77,2.02-2.03l.54,1.2-5.94,10.62ZM35.19,148.66c-1.63-10.79-2.47-21.15-2.05-32.12.06-1.6.63-3.08.73-4.68.05-.73.43-2.56-.69-2.38-1.32,7.24-1.46,14.62-1.39,21.99l3.4,17.2ZM181.16,114.21c-.56-.54-4.1.75-4.9,1.33-13.12,9.53-13.76,23.87-13.37,38.9l2.73,37.14-1.26-4.83-1.44-2.27c.33,2.01-.78,8.07.65,9.14.97.72,3.57.4,5.11,1.65,1.18.96,1.62,3.73,2.74,4,2.99-.73,4.74-2.26,8.04-1.97,2.8.25,3.98,2.14,6.41,2.73l-10.15-20.26-1.35.34c.17,3.01,1.21,6.54,1.35,9.46s.18,10.73-3.06,5.09c-4.95-8.6-7.63-40.05-7.06-50.37.54-9.7,2.4-23.23,12.83-26.7-1.94,5.1-3.55,10.47-3.96,15.96-.1,1.36-.92,4.21,1.26,3.63-.44-8.18,3.63-15.28,5.41-22.97ZM120.34,115.56l-6.72.71-.03,4.02c1.68-1.79,3.42-2.12,5.4-3.07.98-.47,1.69.14,1.35-1.65ZM202.78,127.72l-5.06-6.75-4.38-2.71c-.31,1.33.68,1.6,1.41,2.3,2.48,2.39,5.53,4.73,8.04,7.16ZM186.56,120.28v14.53c0,4.01,4.04,15.11,5.58,19.43,2.46,6.9,6.18,16.36,9.83,22.6.19.32,1.01,2.15,1.49,1.21-2.5-5.43-5.11-10.8-7.27-16.38-4.61-11.91-8.45-24.09-8.96-37-.06-1.47,2.07-4.88-.67-4.39ZM206.83,136.5c-4.46-2.97-9.67-14.63-15.19-14.89-.99-.05-1.24-.08-1.04,1.04.25,1.38,6.13,10.92,7.35,13.6,7.74,17.03,10.41,34.56,16.51,51.74.32.89.78,3.08,1.83,3.23-1.48-5.05-1.71-10.48-3.03-15.54-2.38-9.1-7.01-23.37-10.46-32.11-2-5.05-7.02-12.24-8.09-16.92-.7-3.05,4.21,2.19,4.71,2.73,3,3.3,5.02,7.51,8.43,10.49,1.11-2.8-.08-5.52-1.03-8.1v4.73ZM122.29,182.37c1.49-.91-.95-9.81-1.19-11.83-1.08-9.32-1.66-17.81-4.05-27.04-.36-1.4-.76-4.26-2.11-4.98.05,8.73,2.83,17.29,3.37,26.02.34,5.57-.32,11.22.1,16.79.48,1.46,2.62,1.27,3.88,1.03ZM7.49,164.21v-19.93l-1.34-4.39c-.17,4.32-.28,8.87-.69,13.17-.35,3.69-2.78,16.9-1.67,19.26.7,1.49,3.39,2.24,2.35,5.41h4.06s-.69-21.62-.69-21.62l-.84,6.25-1.18,1.85ZM155.48,190.56l5.32-1.73c-2.27-8.71-1.84-17.74-2.63-26.64l-1.34,7.1-1.35,21.28Z"/>
  </g>
</svg>